<svg width="15" height="15" viewBox="0 0 15 15" fill="none" xmlns="http://www.w3.org/2000/svg">
<g clip-path="url(#clip0_73_626)">
<path d="M4.98952 0.632498C3.56967 1.12506 2.34519 2.05995 1.49594 3.29986C0.646691 4.53977 0.217437 6.01934 0.271227 7.52123C0.325017 9.02313 0.859017 10.4682 1.79479 11.6442C2.73056 12.8202 4.01878 13.6651 5.47023 14.0548C6.64696 14.3584 7.87982 14.3718 9.06283 14.0936C10.1345 13.8529 11.1253 13.338 11.9382 12.5993C12.7843 11.807 13.3984 10.7991 13.7146 9.68394C14.0582 8.47123 14.1193 7.19591 13.8933 5.95589H7.28541V8.69697H11.1123C11.0358 9.13415 10.8719 9.55141 10.6304 9.92378C10.3889 10.2961 10.0747 10.616 9.70675 10.8641C9.23945 11.1732 8.71267 11.3812 8.16024 11.4747C7.60619 11.5777 7.0379 11.5777 6.48384 11.4747C5.92229 11.3586 5.39108 11.1268 4.92402 10.7941C4.17369 10.263 3.61029 9.50844 3.31423 8.63813C3.01316 7.75152 3.01316 6.79033 3.31423 5.90372C3.52498 5.28224 3.87336 4.7164 4.33339 4.24841C4.85984 3.70302 5.52634 3.31318 6.25976 3.12165C6.99318 2.93011 7.76519 2.9443 8.49108 3.16264C9.05814 3.33671 9.57668 3.64084 10.0054 4.0508C10.4369 3.62152 10.8676 3.19113 11.2977 2.75964C11.5197 2.52761 11.7617 2.30668 11.9804 2.06909C11.326 1.46012 10.5579 0.98627 9.72007 0.674686C8.19433 0.120686 6.5249 0.105798 4.98952 0.632498Z" fill="white"/>
<path d="M4.98962 0.633038C6.52487 0.105979 8.1943 0.120476 9.72017 0.674115C10.5582 0.987817 11.3259 1.46395 11.9794 2.07518C11.7574 2.31277 11.5231 2.53481 11.2966 2.76573C10.8659 3.19574 10.4355 3.62428 10.0055 4.05134C9.57678 3.64138 9.05823 3.33725 8.49118 3.16318C7.76553 2.94407 6.99354 2.92907 6.25993 3.11982C5.52631 3.31056 4.8594 3.69969 4.33238 4.24451C3.87235 4.7125 3.52396 5.27834 3.31322 5.89981L1.01178 4.11795C1.83556 2.48436 3.26187 1.23479 4.98962 0.633038Z" fill="#E33629"/>
<path d="M0.401089 5.88265C0.524789 5.26959 0.730156 4.67589 1.0117 4.11743L3.31314 5.90374C3.01207 6.79035 3.01207 7.75154 3.31314 8.63815C2.54636 9.23026 1.77921 9.82533 1.0117 10.4234C0.30689 9.02041 0.0919353 7.42194 0.401089 5.88265Z" fill="#F8BD00"/>
<path d="M7.28541 5.95508H13.8933C14.1193 7.19509 14.0582 8.47042 13.7146 9.68312C13.3984 10.7983 12.7843 11.8062 11.9382 12.5985C11.1955 12.019 10.4495 11.4439 9.70675 10.8644C10.075 10.616 10.3893 10.2958 10.6308 9.92307C10.8723 9.55031 11.0361 9.13262 11.1123 8.69505H7.28541C7.2843 7.78246 7.28541 6.86877 7.28541 5.95508Z" fill="#587DBD"/>
<path d="M1.01062 10.4234C1.77814 9.83128 2.54528 9.23621 3.31206 8.63818C3.60871 9.5088 4.17291 10.2634 4.92407 10.7942C5.39258 11.1253 5.92494 11.3552 6.48722 11.4692C7.04128 11.5722 7.60957 11.5722 8.16362 11.4692C8.71605 11.3757 9.24282 11.1677 9.71013 10.8586C10.4528 11.4381 11.1989 12.0132 11.9416 12.5927C11.1288 13.3318 10.138 13.8471 9.06621 14.0881C7.8832 14.3663 6.65034 14.3529 5.47361 14.0493C4.54294 13.8008 3.67362 13.3627 2.92016 12.7626C2.12266 12.1294 1.4713 11.3315 1.01062 10.4234Z" fill="#319F43"/>
</g>
<defs>
<clipPath id="clip0_73_626">
<rect width="14.2105" height="14.2105" fill="white" transform="translate(0.0391846 0.165283)"/>
</clipPath>
</defs>
</svg>
