<svg width="16" height="15" viewBox="0 0 16 15" fill="none" xmlns="http://www.w3.org/2000/svg">
<g clip-path="url(#clip0_73_635)">
<path d="M15.1444 7.27055C15.1444 3.34644 11.9632 0.165283 8.0391 0.165283C4.115 0.165283 0.933838 3.34644 0.933838 7.27055C0.933838 10.817 3.53214 13.7565 6.9289 14.2895V9.32441H5.12483V7.27055H6.9289V5.70517C6.9289 3.92441 7.9897 2.94078 9.61269 2.94078C10.3901 2.94078 11.2032 3.07955 11.2032 3.07955V4.82811H10.3072C9.42457 4.82811 9.1493 5.37583 9.1493 5.93775V7.27055H11.1199L10.8049 9.32441H9.1493V14.2895C12.5461 13.7565 15.1444 10.817 15.1444 7.27055Z" fill="#1877F2"/>
<path d="M10.805 9.32455L11.12 7.27069H9.1494V5.9379C9.1494 5.37591 9.42468 4.82825 10.3073 4.82825H11.2033V3.07969C11.2033 3.07969 10.3902 2.94092 9.61275 2.94092C7.9898 2.94092 6.92901 3.92455 6.92901 5.70531V7.27069H5.12494V9.32455H6.92901V14.2896C7.29627 14.3472 7.66746 14.376 8.03921 14.376C8.41095 14.376 8.78214 14.3472 9.1494 14.2896V9.32455H10.805Z" fill="white"/>
</g>
<defs>
<clipPath id="clip0_73_635">
<rect width="14.2105" height="14.2105" fill="white" transform="translate(0.933838 0.165283)"/>
</clipPath>
</defs>
</svg>
